<svg xmlns="http://www.w3.org/2000/svg" width="84.444" height="54.143" viewBox="0 0 84.444 54.143">
  <path id="iata-color" d="M631.781,1004.358l3.445-17.185h5.6l-3.426,17.185Zm16.912-5.624h3.562l-.915-6.306-2.647,6.306Zm-7.862,5.624,8.485-17.185h5.527l3.484,17.185h-5.2l-.312-2.043h-5.527l-.876,2.043Zm22.653,0,1.927-12.923h-4.9l.836-4.339h15.064l-.837,4.339H670.9l-1.888,12.923Zm18.839-5.624h3.562l-.915-6.306-2.647,6.306Zm-7.843,5.624,8.466-17.185h5.527l3.484,17.185h-5.235l-.253-2.043h-5.528l-.875,2.043ZM704.2,967.751h-26.37c-.973,4.826-4.321,8.855-11,11.638a6.79,6.79,0,0,0,6.033,4.417h14.3c2.18,0,3.912-1.829,4.613-3.308H677.244c-.9-.156-.934-.876-.039-.954H691.49c1.849,0,3.522-1.576,4.495-3.289H679.346c-.837-.136-.837-.837,0-.973h16.776c1.693,0,3.23-1.965,3.873-3.289H681.584c-.915-.117-.915-.973,0-.992h18.741c1.46,0,2.881-1.6,3.873-3.25Zm-84.444,0h26.37c.954,4.826,4.321,8.855,10.977,11.638a6.791,6.791,0,0,1-6.033,4.417H636.783c-2.18,0-3.912-1.829-4.613-3.308h14.538c.876-.156.934-.876.039-.954h-14.3c-1.849,0-3.523-1.576-4.476-3.289h16.659c.837-.136.837-.837,0-.973H627.85c-1.693,0-3.231-1.965-3.873-3.289h18.411c.914-.117.914-.973,0-.992H623.646c-1.479,0-2.9-1.6-3.892-3.25Zm33.669-14.48a11.757,11.757,0,0,0,3.23,2.043,18.427,18.427,0,0,1,3.97-5.1,14.248,14.248,0,0,0-7.2,3.056Zm-4.671,9.6h5.877a18.842,18.842,0,0,1,1.6-6.715,14.159,14.159,0,0,1-3.523-2.218,13.478,13.478,0,0,0-3.95,8.933Zm12.767-5.508v5.508h-5.878a16.251,16.251,0,0,1,1.46-6.384,14.262,14.262,0,0,0,4.418.876Zm9.01-4.087a11.757,11.757,0,0,1-3.23,2.043,18.438,18.438,0,0,0-3.99-5.079,14.043,14.043,0,0,1,7.22,3.036Zm4.652,9.6h-5.858a17.942,17.942,0,0,0-1.557-6.715,15.017,15.017,0,0,0,3.464-2.218,13.117,13.117,0,0,1,3.951,8.933Zm-12.709-5.508v5.508h5.839a15.53,15.53,0,0,0-1.46-6.384,14.137,14.137,0,0,1-4.379.876Zm-9.049,16.075a12.727,12.727,0,0,1,3.23-2,18.286,18.286,0,0,0,3.97,5.04,14.233,14.233,0,0,1-7.2-3.036Zm-4.671-9.614h5.877a19.15,19.15,0,0,0,1.6,6.773,14.662,14.662,0,0,0-3.523,2.2,13.6,13.6,0,0,1-3.95-8.972Zm12.767,5.527v-5.527h-5.878a15.873,15.873,0,0,0,1.46,6.384,14.24,14.24,0,0,1,4.418-.857Zm9.01,4.087a11.978,11.978,0,0,0-3.23-2,17.989,17.989,0,0,1-3.99,5.04,14.368,14.368,0,0,0,7.22-3.036Zm4.652-9.614h-5.858a17.872,17.872,0,0,1-1.557,6.773,15.546,15.546,0,0,1,3.464,2.2,13.392,13.392,0,0,0,3.951-8.972Zm-12.709,5.527v-5.527h5.839a15.39,15.39,0,0,1-1.46,6.384,14.112,14.112,0,0,0-4.379-.857Zm-.953-18.566a15.43,15.43,0,0,0-3.951,4.865,12.509,12.509,0,0,0,3.951.779V950.78Zm.953,0a15.2,15.2,0,0,1,3.912,4.865,11.476,11.476,0,0,1-3.912.779V950.78Zm-.953,25.144a14.883,14.883,0,0,1-3.951-4.884,11.889,11.889,0,0,1,3.951-.7v5.585Zm.953.039a15.872,15.872,0,0,0,3.912-4.923,12.934,12.934,0,0,0-3.912-.7v5.624Z" transform="translate(-619.754 -950.215)" fill="#003f6f"/>
</svg>
