<svg xmlns="http://www.w3.org/2000/svg" width="82.002" height="55.001" viewBox="0 0 82.002 55.001">
  <g id="iata" transform="translate(-966.001 -4463.997)">
    <path id="Path_3" data-name="Path 3" d="M613.491,1020.26l3.345-17.457h5.443l-3.327,17.457Zm16.422-5.713h3.459l-.888-6.406-2.57,6.406Zm-7.634,5.713,8.239-17.457h5.367l3.383,17.457h-5.046l-.3-2.075h-5.367l-.851,2.075Zm22,0,1.871-13.128h-4.762l.812-4.408h14.628l-.813,4.408h-4.536l-1.833,13.128Zm18.294-5.713h3.459l-.888-6.406-2.57,6.406Zm-7.616,5.713,8.221-17.457h5.367l3.383,17.457h-5.083l-.246-2.075h-5.368l-.85,2.075Zm28.858-37.187h-25.61c-.945,4.9-4.2,9-10.678,11.822a6.632,6.632,0,0,0,5.858,4.487h13.89c2.117,0,3.8-1.858,4.479-3.36H657.638c-.869-.158-.907-.89-.038-.969h13.871c1.8,0,3.42-1.6,4.365-3.341H659.679c-.813-.138-.813-.85,0-.988h16.29c1.644,0,3.136-2,3.761-3.341H661.852c-.888-.119-.888-.988,0-1.008h18.2c1.418,0,2.8-1.621,3.761-3.3Zm-82,0h25.607c.926,4.9,4.2,9,10.659,11.822a6.633,6.633,0,0,1-5.858,4.487H618.348c-2.117,0-3.8-1.858-4.479-3.36h14.117c.851-.158.907-.89.038-.969h-13.89c-1.8,0-3.421-1.6-4.346-3.341h16.177c.813-.138.813-.85,0-.988h-16.29c-1.644,0-3.137-2-3.761-3.341h17.878c.888-.119.888-.988,0-1.008h-18.2c-1.436,0-2.816-1.621-3.779-3.3Zm32.694-14.709a11.357,11.357,0,0,0,3.137,2.075,18.628,18.628,0,0,1,3.855-5.18,13.527,13.527,0,0,0-6.992,3.1Zm-4.536,9.747h5.707a19.872,19.872,0,0,1,1.55-6.821,13.676,13.676,0,0,1-3.421-2.253,13.993,13.993,0,0,0-3.836,9.075Zm12.4-5.6v5.6H636.66a17.144,17.144,0,0,1,1.418-6.485,13.314,13.314,0,0,0,4.29.89Zm8.749-4.152a11.36,11.36,0,0,1-3.136,2.075,18.628,18.628,0,0,0-3.874-5.159,13.331,13.331,0,0,1,7.011,3.084Zm4.517,9.747h-5.688a18.925,18.925,0,0,0-1.512-6.821,14.518,14.518,0,0,0,3.364-2.253,13.619,13.619,0,0,1,3.837,9.075Zm-12.341-5.6v5.6h5.67a16.385,16.385,0,0,0-1.418-6.485,13.2,13.2,0,0,1-4.252.89Zm-8.787,16.33a12.283,12.283,0,0,1,3.137-2.036,18.474,18.474,0,0,0,3.855,5.12,13.511,13.511,0,0,1-6.992-3.084Zm-4.536-9.766h5.707a20.2,20.2,0,0,0,1.55,6.88,14.155,14.155,0,0,0-3.421,2.234,14.118,14.118,0,0,1-3.836-9.114Zm12.4,5.615V979.07H636.66a16.746,16.746,0,0,0,1.418,6.485,13.293,13.293,0,0,1,4.29-.871Zm8.749,4.152a11.563,11.563,0,0,0-3.136-2.036,18.168,18.168,0,0,1-3.874,5.12,13.637,13.637,0,0,0,7.011-3.084Zm4.517-9.766h-5.688a18.855,18.855,0,0,1-1.512,6.88,15.022,15.022,0,0,1,3.364,2.234,13.905,13.905,0,0,0,3.837-9.114ZM643.294,984.7v-5.615h5.67a16.233,16.233,0,0,1-1.418,6.485,13.179,13.179,0,0,0-4.252-.871Zm-.925-18.86a15.559,15.559,0,0,0-3.837,4.942,11.68,11.68,0,0,0,3.837.791V965.84Zm.925,0a15.33,15.33,0,0,1,3.8,4.942,10.717,10.717,0,0,1-3.8.791V965.84Zm-.925,25.542a15.007,15.007,0,0,1-3.837-4.961,11.091,11.091,0,0,1,3.837-.712Zm.925.04a16.024,16.024,0,0,0,3.8-5,12.064,12.064,0,0,0-3.8-.712v5.713Z" transform="translate(364.188 3498.738)" fill="#fff"/>
    <path id="Path_4" data-name="Path 4" d="M613.491,1020.26l3.345-17.457h5.443l-3.327,17.457Zm16.422-5.713h3.459l-.888-6.406-2.57,6.406Zm-7.634,5.713,8.239-17.457h5.367l3.383,17.457h-5.046l-.3-2.075h-5.367l-.851,2.075Zm22,0,1.871-13.128h-4.762l.812-4.408h14.628l-.813,4.408h-4.536l-1.833,13.128Zm18.294-5.713h3.459l-.888-6.406-2.57,6.406Zm-7.616,5.713,8.221-17.457h5.367l3.383,17.457h-5.083l-.246-2.075h-5.368l-.85,2.075Zm28.858-37.187h-25.61c-.945,4.9-4.2,9-10.678,11.822a6.632,6.632,0,0,0,5.858,4.487h13.89c2.117,0,3.8-1.858,4.479-3.36H657.638c-.869-.158-.907-.89-.038-.969h13.871c1.8,0,3.42-1.6,4.365-3.341H659.679c-.813-.138-.813-.85,0-.988h16.29c1.644,0,3.136-2,3.761-3.341H661.852c-.888-.119-.888-.988,0-1.008h18.2c1.418,0,2.8-1.621,3.761-3.3Zm-82,0h25.607c.926,4.9,4.2,9,10.659,11.822a6.633,6.633,0,0,1-5.858,4.487H618.348c-2.117,0-3.8-1.858-4.479-3.36h14.117c.851-.158.907-.89.038-.969h-13.89c-1.8,0-3.421-1.6-4.346-3.341h16.177c.813-.138.813-.85,0-.988h-16.29c-1.644,0-3.137-2-3.761-3.341h17.878c.888-.119.888-.988,0-1.008h-18.2c-1.436,0-2.816-1.621-3.779-3.3Zm32.694-14.709a11.357,11.357,0,0,0,3.137,2.075,18.628,18.628,0,0,1,3.855-5.18,13.527,13.527,0,0,0-6.992,3.1Zm-4.536,9.747h5.707a19.872,19.872,0,0,1,1.55-6.821,13.676,13.676,0,0,1-3.421-2.253,13.993,13.993,0,0,0-3.836,9.075Zm12.4-5.6v5.6H636.66a17.144,17.144,0,0,1,1.418-6.485,13.314,13.314,0,0,0,4.29.89Zm8.749-4.152a11.36,11.36,0,0,1-3.136,2.075,18.628,18.628,0,0,0-3.874-5.159,13.331,13.331,0,0,1,7.011,3.084Zm4.517,9.747h-5.688a18.925,18.925,0,0,0-1.512-6.821,14.518,14.518,0,0,0,3.364-2.253,13.619,13.619,0,0,1,3.837,9.075Zm-12.341-5.6v5.6h5.67a16.385,16.385,0,0,0-1.418-6.485,13.2,13.2,0,0,1-4.252.89Zm-8.787,16.33a12.283,12.283,0,0,1,3.137-2.036,18.474,18.474,0,0,0,3.855,5.12,13.511,13.511,0,0,1-6.992-3.084Zm-4.536-9.766h5.707a20.2,20.2,0,0,0,1.55,6.88,14.155,14.155,0,0,0-3.421,2.234,14.118,14.118,0,0,1-3.836-9.114Zm12.4,5.615V979.07H636.66a16.746,16.746,0,0,0,1.418,6.485,13.293,13.293,0,0,1,4.29-.871Zm8.749,4.152a11.563,11.563,0,0,0-3.136-2.036,18.168,18.168,0,0,1-3.874,5.12,13.637,13.637,0,0,0,7.011-3.084Zm4.517-9.766h-5.688a18.855,18.855,0,0,1-1.512,6.88,15.022,15.022,0,0,1,3.364,2.234,13.905,13.905,0,0,0,3.837-9.114ZM643.294,984.7v-5.615h5.67a16.233,16.233,0,0,1-1.418,6.485,13.179,13.179,0,0,0-4.252-.871Zm-.925-18.86a15.559,15.559,0,0,0-3.837,4.942,11.68,11.68,0,0,0,3.837.791V965.84Zm.925,0a15.33,15.33,0,0,1,3.8,4.942,10.717,10.717,0,0,1-3.8.791V965.84Zm-.925,25.542a15.007,15.007,0,0,1-3.837-4.961,11.091,11.091,0,0,1,3.837-.712Zm.925.04a16.024,16.024,0,0,0,3.8-5,12.064,12.064,0,0,0-3.8-.712v5.713Z" transform="translate(364.188 3498.738)" fill="#fff"/>
  </g>
</svg>
