<?xml version="1.0" encoding="utf-8"?>
<!-- Generator: Adobe Illustrator 19.0.0, SVG Export Plug-In . SVG Version: 6.00 Build 0)  -->
<svg version="1.1" id="Layer_1" xmlns="http://www.w3.org/2000/svg" xmlns:xlink="http://www.w3.org/1999/xlink" x="0px" y="0px"
	 viewBox="59 -3.3 307.5 106.3" style="enable-background:new 59 -3.3 307.5 106.3;" xml:space="preserve">
<style type="text/css">
	.st0{fill:#5A83FA;stroke:#2751BD;stroke-width:2;stroke-miterlimit:10;}
	.st1{fill:#86D973;stroke:#167300;stroke-width:2;stroke-miterlimit:10;}
	.st2{fill:#91C3EB;stroke:#2E84C7;stroke-width:2;stroke-miterlimit:10;}
	.st3{fill:#7088A3;stroke:#0B386C;stroke-width:2;stroke-miterlimit:10;}
	.st4{fill:#ECAD69;stroke:#E07400;stroke-width:2;stroke-miterlimit:10;}
	.st5{fill:#F79B9B;stroke:#D20D0D;stroke-width:2;stroke-miterlimit:10;}
</style>
<g id="XMLID_34_">
	<path id="XMLID_2_" class="st0" d="M92.9,38.5H66c-3.3,0-6-2.7-6-6V9.1c0-3.3,2.7-6,6-6h26.9c3.3,0,6,2.7,6,6v23.4
		C98.9,35.8,96.2,38.5,92.9,38.5z"/>
	<path id="XMLID_1_" class="st0" d="M92.6,8.5H73.1c-2.2,0-4-1.8-4-4V1.7c0-2.2,1.8-4,4-4h19.5c2.2,0,4,1.8,4,4v2.8
		C96.6,6.7,94.8,8.5,92.6,8.5z"/>
	<path id="XMLID_4_" class="st0" d="M92.6,42H73.1c-2.2,0-4-1.8-4-4v-2.8c0-2.2,1.8-4,4-4h19.5c2.2,0,4,1.8,4,4V38
		C96.6,40.2,94.8,42,92.6,42z"/>
	<path id="XMLID_3_" class="st0" d="M99,36.5h-1.8c-3.3,0-6-2.7-6-6V11.1c0-3.3,2.7-6,6-6H99c3.3,0,6,2.7,6,6v19.5
		C105,33.8,102.3,36.5,99,36.5z"/>
</g>
<g id="XMLID_14_">
	<path id="XMLID_37_" class="st1" d="M144.6,38.5h-26.9c-3.3,0-6-2.7-6-6V9.1c0-3.3,2.7-6,6-6h26.9c3.3,0,6,2.7,6,6v23.4
		C150.6,35.8,147.9,38.5,144.6,38.5z"/>
	<path id="XMLID_36_" class="st1" d="M144.3,8.5h-19.5c-2.2,0-4-1.8-4-4V1.7c0-2.2,1.8-4,4-4h19.5c2.2,0,4,1.8,4,4v2.8
		C148.3,6.7,146.5,8.5,144.3,8.5z"/>
	<path id="XMLID_35_" class="st1" d="M144.3,42h-19.5c-2.2,0-4-1.8-4-4v-2.8c0-2.2,1.8-4,4-4h19.5c2.2,0,4,1.8,4,4V38
		C148.3,40.2,146.5,42,144.3,42z"/>
	<path id="XMLID_15_" class="st1" d="M150.7,36.5h-1.8c-3.3,0-6-2.7-6-6V11.1c0-3.3,2.7-6,6-6h1.8c3.3,0,6,2.7,6,6v19.5
		C156.7,33.8,154,36.5,150.7,36.5z"/>
</g>
<g id="XMLID_44_">
	<path id="XMLID_48_" class="st2" d="M197.4,38.5h-26.9c-3.3,0-6-2.7-6-6V9.1c0-3.3,2.7-6,6-6h26.9c3.3,0,6,2.7,6,6v23.4
		C203.4,35.8,200.7,38.5,197.4,38.5z"/>
	<path id="XMLID_47_" class="st2" d="M197.1,8.5h-19.5c-2.2,0-4-1.8-4-4V1.7c0-2.2,1.8-4,4-4h19.5c2.2,0,4,1.8,4,4v2.8
		C201.1,6.7,199.3,8.5,197.1,8.5z"/>
	<path id="XMLID_46_" class="st2" d="M197.1,42h-19.5c-2.2,0-4-1.8-4-4v-2.8c0-2.2,1.8-4,4-4h19.5c2.2,0,4,1.8,4,4V38
		C201.1,40.2,199.3,42,197.1,42z"/>
	<path id="XMLID_45_" class="st2" d="M203.5,36.5h-1.8c-3.3,0-6-2.7-6-6V11.1c0-3.3,2.7-6,6-6h1.8c3.3,0,6,2.7,6,6v19.5
		C209.5,33.8,206.8,36.5,203.5,36.5z"/>
</g>
<g id="XMLID_52_">
	<path id="XMLID_56_" class="st3" d="M248.9,38.5H222c-3.3,0-6-2.7-6-6V9.1c0-3.3,2.7-6,6-6h26.9c3.3,0,6,2.7,6,6v23.4
		C254.9,35.8,252.2,38.5,248.9,38.5z"/>
	<path id="XMLID_55_" class="st3" d="M248.6,8.5h-19.5c-2.2,0-4-1.8-4-4V1.7c0-2.2,1.8-4,4-4h19.5c2.2,0,4,1.8,4,4v2.8
		C252.6,6.7,250.8,8.5,248.6,8.5z"/>
	<path id="XMLID_54_" class="st3" d="M248.6,42h-19.5c-2.2,0-4-1.8-4-4v-2.8c0-2.2,1.8-4,4-4h19.5c2.2,0,4,1.8,4,4V38
		C252.6,40.2,250.8,42,248.6,42z"/>
	<path id="XMLID_53_" class="st3" d="M255,36.5h-1.8c-3.3,0-6-2.7-6-6V11.1c0-3.3,2.7-6,6-6h1.8c3.3,0,6,2.7,6,6v19.5
		C261,33.8,258.3,36.5,255,36.5z"/>
</g>
<g id="XMLID_5_">
	<path id="XMLID_9_" class="st4" d="M301.1,38.5h-26.9c-3.3,0-6-2.7-6-6V9.1c0-3.3,2.7-6,6-6h26.9c3.3,0,6,2.7,6,6v23.4
		C307.1,35.8,304.5,38.5,301.1,38.5z"/>
	<path id="XMLID_8_" class="st4" d="M300.8,8.5h-19.5c-2.2,0-4-1.8-4-4V1.7c0-2.2,1.8-4,4-4h19.5c2.2,0,4,1.8,4,4v2.8
		C304.8,6.7,303,8.5,300.8,8.5z"/>
	<path id="XMLID_7_" class="st4" d="M300.8,42h-19.5c-2.2,0-4-1.8-4-4v-2.8c0-2.2,1.8-4,4-4h19.5c2.2,0,4,1.8,4,4V38
		C304.8,40.2,303,42,300.8,42z"/>
	<path id="XMLID_6_" class="st4" d="M307.3,36.5h-1.8c-3.3,0-6-2.7-6-6V11.1c0-3.3,2.7-6,6-6h1.8c3.3,0,6,2.7,6,6v19.5
		C313.3,33.8,310.5,36.5,307.3,36.5z"/>
</g>
<g id="XMLID_10_">
	<path id="XMLID_16_" class="st5" d="M352.6,38.5h-26.9c-3.3,0-6-2.7-6-6V9.1c0-3.3,2.7-6,6-6h26.9c3.3,0,6,2.7,6,6v23.4
		C358.6,35.8,356,38.5,352.6,38.5z"/>
	<path id="XMLID_13_" class="st5" d="M352.3,8.5h-19.5c-2.2,0-4-1.8-4-4V1.7c0-2.2,1.8-4,4-4h19.5c2.2,0,4,1.8,4,4v2.8
		C356.3,6.7,354.5,8.5,352.3,8.5z"/>
	<path id="XMLID_12_" class="st5" d="M352.3,42h-19.5c-2.2,0-4-1.8-4-4v-2.8c0-2.2,1.8-4,4-4h19.5c2.2,0,4,1.8,4,4V38
		C356.3,40.2,354.5,42,352.3,42z"/>
	<path id="XMLID_11_" class="st5" d="M358.8,36.5H357c-3.3,0-6-2.7-6-6V11.1c0-3.3,2.7-6,6-6h1.8c3.3,0,6,2.7,6,6v19.5
		C364.8,33.8,362,36.5,358.8,36.5z"/>
</g>
</svg>
