<svg xmlns="http://www.w3.org/2000/svg" width="42" height="37" viewBox="0 0 42 37">
  <g id="taai" transform="translate(-509 -4814)">
    <path id="Path_5" data-name="Path 5" d="M2.872,42.593H18.823c-2.967-3.218-5.334-6.681-4.055-12.311a15.351,15.351,0,0,0,9.068,12.311H44.872L37.1,29.1c-1.622,4.276-3.632,8.153-9.4,9.448a15.463,15.463,0,0,0,7.08-13.495L23.587,5.593,15.892,19.325c4.508-.806,8.878-1.095,12.984,3.307a15.018,15.018,0,0,0-15.344.947l.037-.1L2.872,42.593Zm26.6-14.05H28.7v3.744h.775V28.543ZM25.83,31.518H27.2l.234.769h.84l-1.3-3.744h-.891l-1.315,3.744h.811l.256-.769Zm.68-2.131h.007l.46,1.48h-.943l.475-1.48Zm-4.391,2.131h1.366l.234.769h.84l-1.3-3.744h-.891l-1.315,3.744h.811l.256-.769Zm.68-2.131H22.8l.46,1.48h-.943l.475-1.48Zm-2.572-.178h1.111v-.658h-3v.658h1.118v3.078h.775V29.209Zm3.646-6.067a7.222,7.222,0,1,1-7.132,7.221,7.191,7.191,0,0,1,7.132-7.221Z" transform="translate(506.128 4808.407)" fill="#231815"/>
    <path id="Path_6" data-name="Path 6" d="M2.872,42.593H18.823c-2.967-3.218-5.334-6.681-4.055-12.311a15.351,15.351,0,0,0,9.068,12.311H44.872L37.1,29.1c-1.622,4.276-3.632,8.153-9.4,9.448a15.463,15.463,0,0,0,7.08-13.495L23.587,5.593,15.892,19.325c4.508-.806,8.878-1.095,12.984,3.307a15.018,15.018,0,0,0-15.344.947l.037-.1L2.872,42.593Zm26.6-14.05H28.7v3.744h.775V28.543ZM25.83,31.518H27.2l.234.769h.84l-1.3-3.744h-.891l-1.315,3.744h.811l.256-.769Zm.68-2.131h.007l.46,1.48h-.943l.475-1.48Zm-4.391,2.131h1.366l.234.769h.84l-1.3-3.744h-.891l-1.315,3.744h.811l.256-.769Zm.68-2.131H22.8l.46,1.48h-.943l.475-1.48Zm-2.572-.178h1.111v-.658h-3v.658h1.118v3.078h.775V29.209Zm3.646-6.067a7.222,7.222,0,1,1-7.132,7.221,7.191,7.191,0,0,1,7.132-7.221Z" transform="translate(506.128 4808.407)" fill="#fff"/>
  </g>
</svg>
